# xmcd
#
# Track frame offsets:
# 150
# 17117
# 33310
# 54730
# 73465
# 94965
# 113042
# 129277
# 145792
# 168470
# 183285
#
# Disc length: 2815 seconds
#
#
# Revision: 5
# Processed by: cddbd v1.5.2PL0 Copyright (c) Steve Scherf et al.
# Submitted via: FreeRIP 2.951 
#
DISCID=9a0afd0b
DTITLE=Big House - Big House
DYEAR=1997
DGENRE=Country
TTITLE0=You Ain't Lonely Yet
TTITLE1=Cold Outside
TTITLE2=Amarillo
TTITLE3=Love Ain't Easy
TTITLE4=Walkin' On Me
TTITLE5=Sunday In Memphis
TTITLE6=Blue Train
TTITLE7=Soul Country
TTITLE8=Cryin' Town
TTITLE9=Whose Baby Will You Be Tonight
TTITLE10=Road Man
EXTD=YEAR: 1997
EXTT0=
EXTT1=
EXTT2=
EXTT3=
EXTT4=
EXTT5=
EXTT6=
EXTT7=
EXTT8=
EXTT9=
EXTT10=
PLAYORDER=
